<?xml version="1.0" encoding="UTF-8"?><svg xmlns="http://www.w3.org/2000/svg" xmlns:xlink="http://www.w3.org/1999/xlink" height="330.5" preserveAspectRatio="xMidYMid meet" version="1.0" viewBox="68.7 39.3 320.5 330.5" width="320.5" zoomAndPan="magnify"><g id="change1_1"><path d="M81.685,187.32c-13.013,58.39,13.397,116.507,66.638,147.833c58.869,34.638,130.884,10.759,169.483-42.334 c16.295-22.413,71.378-131.491-33.781-196.386C191.429,39.292,101.58,98.047,81.685,187.32z" fill="#dbd5d2"/></g><g id="change2_1"><path d="M107.039,192.613c-10.275,46.104,10.578,91.992,52.616,116.726c46.482,27.35,103.343,8.495,133.821-33.426 c12.866-17.697,56.358-103.823-26.673-155.062C193.691,75.732,122.748,122.124,107.039,192.613z" fill="#c6c2bf"/></g><g id="change1_2"><path d="M124.71,236.003c11.943,37.579,46.255,61.932,86.971,62.129c45.02,0.218,78.13-37.259,82.52-80.302 c1.853-18.171-2.926-98.572-84.347-100.681C138.159,115.292,106.45,178.55,124.71,236.003z" fill="#dbd5d2"/></g><g id="change3_2"><path d="M212.056,299.985c-0.129,0-0.255,0-0.384-0.001c-41.72-0.202-76.547-25.096-88.727-63.42v0 c-10.01-31.496-5.328-64.482,12.525-88.239c16.618-22.111,43.057-33.855,74.43-33.027 c26.598,0.689,47.68,9.669,62.659,26.691c22.962,26.094,24.736,63.729,23.482,76.028 C291.27,264.816,255.197,299.983,212.056,299.985z M206.866,118.962c-28.856,0-53.075,11.152-68.435,31.589 c-17.135,22.8-21.604,54.536-11.956,84.893l0,0c11.684,36.764,45.132,60.644,85.215,60.838 c0.121,0.001,0.245,0.001,0.366,0.001c41.235,0.001,75.724-33.74,80.303-78.64c1.208-11.852-0.492-48.107-22.579-73.206 c-14.271-16.217-34.449-24.775-59.975-25.437C208.821,118.974,207.839,118.962,206.866,118.962z" fill="#2c2666"/></g><g id="change4_1"><path d="M167.371,147.157c-38.515,24.46-33.28,91.478-4.467,114.612c56.037,44.992,122.059-0.349,115.274-67.726 C274.632,158.839,220.013,113.725,167.371,147.157z" fill="#c68668"/></g><g id="change5_1"><path d="M168.849,150.093c-30.907,19.628-26.705,73.407-3.585,91.97c44.967,36.104,97.946-0.28,92.502-54.347 C254.921,159.467,211.092,123.265,168.849,150.093z" fill="#dba080"/></g><g id="change3_3"><path d="M207.727,281.828c-3.575,0-7.249-0.242-11.017-0.726c-5.469-0.703-10.066-3.276-14.514-5.764 c-0.898-0.503-1.803-1.009-2.721-1.503c-0.709-0.383-1.41-0.756-2.102-1.124c-5.822-3.1-11.32-6.028-16.169-11.543 c-0.939-1.068-1.917-2.146-2.906-3.238c-4.045-4.462-8.228-9.076-11.002-14.23c-2.792-5.185-3.787-9.168-4.938-13.78 c-0.37-1.481-0.763-3.056-1.245-4.796c-6.496-23.433-0.093-65.6,24.726-78.337c0.911-0.469,2.026-0.107,2.493,0.802 c0.467,0.91,0.107,2.025-0.802,2.492c-23.182,11.897-29.016,51.806-22.849,74.054c0.491,1.773,0.893,3.378,1.27,4.888 c1.137,4.551,2.034,8.145,4.605,12.922c2.562,4.757,6.59,9.201,10.485,13.499c1.003,1.106,1.993,2.198,2.944,3.28 c4.402,5.009,9.373,7.655,15.128,10.72c0.697,0.371,1.403,0.748,2.119,1.133c0.935,0.504,1.855,1.02,2.771,1.532 c4.329,2.422,8.419,4.71,13.178,5.322c14.314,1.843,27.16,0.023,38.191-5.4c0.918-0.45,2.027-0.073,2.478,0.845 c0.451,0.917,0.073,2.027-0.845,2.479C228.242,279.661,218.427,281.827,207.727,281.828z" fill="#2c2666"/></g><g id="change3_1"><path d="M291.574,187.451c-0.666,0-1.309-0.359-1.641-0.989c-0.476-0.905-0.128-2.024,0.776-2.501 c4.792-2.521,10.33-5.605,15.687-8.588c3.618-2.015,7.167-3.991,10.379-5.735c4.7-2.551,9.07-5.185,10.897-9.333 c1.435-3.26,1.038-7.403-1.012-10.554c-1.992-3.062-5.478-5.236-9.324-5.818c-4.905-0.74-10.063,1.013-14.52,2.714 c-6.322,2.415-11.711,5.442-17.416,8.646c-1.372,0.771-2.765,1.553-4.196,2.342c-0.896,0.494-2.022,0.167-2.515-0.728 c-0.494-0.896-0.168-2.021,0.728-2.515c1.423-0.784,2.807-1.562,4.17-2.327c5.827-3.274,11.331-6.366,17.909-8.877 c4.898-1.87,10.608-3.791,16.393-2.917c4.876,0.737,9.315,3.526,11.875,7.459c2.755,4.235,3.252,9.625,1.297,14.066 c-2.298,5.218-7.232,8.226-12.52,11.095c-3.201,1.738-6.737,3.708-10.344,5.716c-5.375,2.993-10.934,6.088-15.764,8.63 C292.159,187.383,291.864,187.451,291.574,187.451z" fill="#2c2666"/></g><g id="change6_1"><path d="M246.438,188.347c-3.417-1.254-6.808,1.754-9.143,4.547c-6.016,7.194-14.789,33.254-14.775,25.388 c-3.339-8.088,12.113-26.231,14.292-39.591c0.277-1.7,0.182-3.824-1.332-4.644c-1.311-0.709-3.618-3.411-7.977-0.607 c-6.046,3.886-8.059,12.102-9.862,18.573c-0.422,1.517-1.679,9.715-3.659,9.679c-2.564-0.045,0.206-11.897,0.442-13.616 c1.116-8.156,6.789-17.129,2.122-25.202c-0.426-0.736-0.985-1.446-1.768-1.779c-2.037-0.866-4.355,1.017-5.251,3.04 c-11.296,25.498,13.442,62.793,9.257,65.046c-4.048,2.18-9.508-38.926-25.293-52.384c-3.785-3.227-8.878-5.667-13.648-4.255 c-1.421,0.421-2.777,1.2-3.651,2.396c-0.915,1.253-1.233,2.878-1.085,4.422c0.402,4.176,3.93,7.429,7.73,9.207 c3.801,1.777,8.012,2.491,11.898,4.073s10.969,10.115,10.658,14.981c-0.934,3.498-11.522-13.629-27.068-13.387 c-1.296,0.02-2.644,0.209-3.734,0.912c-2.135,1.377-2.504,4.539-1.409,6.833c1.095,2.294,3.269,3.869,5.466,5.147 c4.745,2.761,10.02,4.609,15.451,5.412c3.661,0.542,16.309,7.299,16.309,11.659c-1.133,4.048-7.817-1.246-15.291-6.228 c-3.514-2.343-11.781-3.33-15.974-2.824c-3.627,0.438-7.592,2.414-8.302,5.999c-0.632,3.196,1.62,6.29,4.242,8.224 c12.166,8.976,31.262,1.828,43.277,11.006l-0.511-0.296c1.453,1.481,2.795,3.071,4.248,4.552 c-1.057-5.938,3.015-11.446,6.847-16.104c3.039-3.695,6.082-7.395,9.376-10.865c2.307-2.431,4.756-4.772,6.554-7.6 c1.858-2.922,2.953-6.253,3.994-9.556c0.689-2.188,1.372-4.448,1.182-6.735S248.593,189.138,246.438,188.347z" fill="#e3b79a"/></g></svg>